<svg xml:space="preserve" viewBox="103.32460496613996 0 306.27539503386004 513.1557562076749" xmlns:xlink="http://www.w3.org/1999/xlink" xmlns="http://www.w3.org/2000/svg" id="Layer_1" version="1.1" style="max-height: 500px" width="306.27539503386004" height="513.1557562076749">
<path d="M292.833,512h-73.668c-10.944,0-19.817-8.873-19.817-19.817V380.201&#10;&#9;c0-10.944,8.873-19.817,19.817-19.817h73.668c10.944,0,19.817,8.873,19.817,19.817v111.981C312.65,503.127,303.778,512,292.833,512z" style="fill:#DBBE93;"/>
<path d="M292.833,360.384h-36.838V512h36.838c10.944,0,19.817-8.873,19.817-19.817V380.201&#10;&#9;C312.65,369.257,303.778,360.384,292.833,360.384z" style="fill:#DBAC67;"/>
<path d="M386.451,400.019H125.548c-10.944,0-19.817-8.873-19.817-19.817v-88.61&#10;&#9;c0-10.944,8.873-19.817,19.817-19.817H386.45c10.944,0,19.817,8.873,19.817,19.817v88.61&#10;&#9;C406.268,391.146,397.396,400.019,386.451,400.019z" style="fill:#39A3DB;"/>
<path d="M386.451,242.365h-51.01c-28.19,0-51.187-18.482-59.231-42.607H125.548&#10;&#9;c-10.944,0-19.817-8.873-19.817-19.817v-29.673C105.73,67.409,173.141,0,256,0s150.268,67.409,150.268,150.267v72.281&#10;&#9;C406.268,233.492,397.396,242.365,386.451,242.365z" style="fill:#ED3E3C;"/>
<path d="M256,0c-0.001,0-0.003,0-0.004,0v199.758h20.215c8.043,24.126,31.041,42.607,59.231,42.607h51.01&#10;&#9;c10.944,0,19.817-8.873,19.817-19.817v-72.281C406.268,67.409,338.858,0,256,0z" style="fill:#D62F2D;"/>
<path d="M386.451,271.774H255.996v128.245h130.455c10.944,0,19.817-8.873,19.817-19.817v-88.61&#10;&#9;C406.268,280.647,397.396,271.774,386.451,271.774z" style="fill:#4881C2;"/>
<path d="M386.451,311.409H125.548c-10.944,0-19.817-8.873-19.817-19.817V179.94&#10;&#9;c0-10.944,8.873-19.817,19.817-19.817h167.285c10.944,0,19.817,8.873,19.817,19.817c0,12.61,10.22,22.79,22.79,22.79h51.01&#10;&#9;c10.944,0,19.817,8.873,19.817,19.817v69.044C406.268,302.536,397.396,311.409,386.451,311.409z" style="fill:#FFDA79;"/>
<path d="M386.451,202.73h-51.01c-12.569,0-22.79-10.18-22.79-22.79c0-10.944-8.873-19.817-19.817-19.817&#10;&#9;h-36.838v151.286h130.455c10.944,0,19.817-8.873,19.817-19.817v-69.044C406.268,211.603,397.396,202.73,386.451,202.73z" style="fill:#FFC72D;"/>
</svg>